# xmcd CD database file
#
# Track frame offsets:
#	150
#	26250
#	52125
#	81600
#	118500
#	156000
#	199425
#	222300
#	247650
#	276075
#
# Disc length: 4249 seconds
#
# Revision: 0
# Processed by: cddbd v1.4PL0 Copyright (c) Steve Scherf et al.
# Submitted via: CDex 1.50Beta5
#
DISCID=8c10970a
DTITLE=Claudio Roditi - Free Wheelin'
DYEAR=1994
DGENRE=Jazz
TTITLE0=Free Wheelin'
TTITLE1=Trapped
TTITLE2=The Sidewinder
TTITLE3=Our Man Higgins
TTITLE4=The Joker
TTITLE5=Ceora
TTITLE6=Speedball
TTITLE7=Yes I Can, No You Can't
TTITLE8=Peyote
TTITLE9=A Night In Tunisia
EXTD=YEAR: 1994
EXTT0=
EXTT1=
EXTT2=
EXTT3=
EXTT4=
EXTT5=
EXTT6=
EXTT7=
EXTT8=
EXTT9=
PLAYORDER=
